<?xml version="1.0" encoding="utf-8"?>
<!-- Generator: Adobe Illustrator 23.0.1, SVG Export Plug-In . SVG Version: 6.00 Build 0)  -->
<svg version="1.1" id="Layer_1" xmlns="http://www.w3.org/2000/svg" xmlns:xlink="http://www.w3.org/1999/xlink" x="0px" y="0px"
	 viewBox="0 0 55.1 55" style="enable-background:new 0 0 55.1 55;" xml:space="preserve">
<style type="text/css">
	.st0{fill:#489376;stroke:#707070;}
	.st1{fill:#2C5C49;stroke:#707070;}
	.st2{fill:#FFFFFF;}
	.st3{fill:#707070;}
	.st4{fill:#262626;}
</style>
<g id="icon" transform="translate(2.5 2.5)">
	<g transform="matrix(1, 0, 0, 1, -2.5, -2.5)">
		<path id="Rectangle_3-5" class="st0" d="M10.9,0.7h16.7l0,0v26.8l0,0H0.7l0,0V10.9C0.7,5.3,5.3,0.7,10.9,0.7z"/>
	</g>
	<g transform="matrix(1, 0, 0, 1, -2.5, -2.5)">
		<path id="Rectangle_3-6" class="st1" d="M27.6,0.7h16.7c5.6,0,10.2,4.6,10.2,10.2l0,0v16.6l0,0H27.6l0,0V0.7L27.6,0.7z"/>
	</g>
	<g transform="matrix(1, 0, 0, 1, -2.5, -2.5)">
		<path id="Rectangle_3-7" class="st1" d="M0.7,27.5h26.9l0,0v26.8l0,0H10.9c-5.6,0-10.2-4.6-10.2-10.2L0.7,27.5L0.7,27.5z"/>
	</g>
	<g transform="matrix(1, 0, 0, 1, -2.5, -2.5)">
		<path id="Rectangle_3-8" class="st0" d="M27.6,27.5h26.9l0,0v16.6c0,5.6-4.6,10.2-10.2,10.2H27.6l0,0V27.5L27.6,27.5z"/>
	</g>
	<g id="Ellipse_1" transform="translate(2.006 2)">
		<g>
			<path class="st2" d="M9.6,19.9c-5.7,0-10.4-4.6-10.4-10.3c0-5.7,4.7-10.3,10.4-10.3S20,3.9,20,9.6C20,15.3,15.3,19.9,9.6,19.9z"
				/>
			<path class="st3" d="M9.6-0.2c5.5,0,9.9,4.4,9.9,9.8s-4.4,9.8-9.9,9.8S-0.3,15-0.3,9.6S4.1-0.2,9.6-0.2 M9.6-1.2
				c-6,0-10.9,4.8-10.9,10.8c0,6,4.9,10.8,10.9,10.8s10.9-4.8,10.9-10.8C20.5,3.6,15.6-1.2,9.6-1.2L9.6-1.2z"/>
		</g>
	</g>
	<g id="Ellipse_2" transform="translate(23.066 23)">
		<g>
			<path class="st2" d="M15.4,25.7C9.7,25.7,5,21.1,5,15.4S9.7,5.1,15.4,5.1s10.4,4.6,10.4,10.3S21.1,25.7,15.4,25.7z"/>
			<path class="st3" d="M15.4,5.6c5.5,0,9.9,4.4,9.9,9.8s-4.4,9.8-9.9,9.8s-9.9-4.4-9.9-9.8S9.9,5.6,15.4,5.6 M15.4,4.6
				c-6,0-10.9,4.8-10.9,10.8s4.9,10.8,10.9,10.8s10.9-4.8,10.9-10.8S21.4,4.6,15.4,4.6L15.4,4.6z"/>
		</g>
	</g>
	<g id="Ellipse_3" transform="translate(23.066 2)">
		<g>
			<path class="st4" d="M15.4,19.9C9.7,19.9,5,15.3,5,9.6C5,3.9,9.7-0.7,15.4-0.7S25.8,3.9,25.8,9.6C25.8,15.3,21.1,19.9,15.4,19.9z
				"/>
			<path class="st3" d="M15.4-0.2c5.5,0,9.9,4.4,9.9,9.8s-4.4,9.8-9.9,9.8S5.5,15,5.5,9.6S9.9-0.2,15.4-0.2 M15.4-1.2
				c-6,0-10.9,4.8-10.9,10.8c0,6,4.9,10.8,10.9,10.8s10.9-4.8,10.9-10.8C26.3,3.6,21.4-1.2,15.4-1.2L15.4-1.2z"/>
		</g>
	</g>
	<g id="Ellipse_4" transform="translate(2.006 23)">
		<g>
			<path class="st4" d="M9.6,25.7c-5.7,0-10.4-4.6-10.4-10.3S3.9,5.1,9.6,5.1S20,9.7,20,15.4S15.3,25.7,9.6,25.7z"/>
			<path class="st3" d="M9.6,5.6c5.5,0,9.9,4.4,9.9,9.8s-4.4,9.8-9.9,9.8s-9.9-4.4-9.9-9.8S4.1,5.6,9.6,5.6 M9.6,4.6
				c-6,0-10.9,4.8-10.9,10.8S3.6,26.2,9.6,26.2s10.9-4.8,10.9-10.8S15.6,4.6,9.6,4.6L9.6,4.6z"/>
		</g>
	</g>
</g>
</svg>
