<?xml version="1.0" encoding="utf-8"?>
<!-- Generator: Adobe Illustrator 23.0.1, SVG Export Plug-In . SVG Version: 6.00 Build 0)  -->
<svg version="1.1" id="Layer_1" xmlns="http://www.w3.org/2000/svg" xmlns:xlink="http://www.w3.org/1999/xlink" x="0px" y="0px"
	 viewBox="0 0 67 68" style="enable-background:new 0 0 67 68;" xml:space="preserve">
<style type="text/css">
	.st0{fill:#2C5C49;}
	.st1{fill:none;stroke:#2A5845;}
	.st2{fill:#2C5C49;stroke:#2A5845;}
	.st3{fill:#489376;}
	.st4{fill:none;stroke:#489376;}
	.st5{fill:#489376;stroke:#489376;}
</style>
<g id="icon" transform="translate(-1796.5 -995)">
	<g id="userIcon1" transform="translate(7 -4)">
		<g transform="matrix(1, 0, 0, 1, 1789.5, 999)">
			<g id="head-3" transform="translate(26.5 8)">
				<circle class="st0" cx="15.5" cy="5.1" r="13.1"/>
				<circle class="st1" cx="15.5" cy="5.1" r="12.4"/>
			</g>
		</g>
		<g transform="matrix(1, 0, 0, 1, 1789.5, 999)">
			<path id="body-3" class="st2" d="M16.5,61.8c0,0,0-35.5,24.7-35.5c9.6,0,15.5,5.4,19.4,12.5c5.3,9.8,5.3,23,5.3,23"/>
		</g>
	</g>
	<g id="userIcon1-2" transform="translate(-3)">
		<g transform="matrix(1, 0, 0, 1, 1799.5, 995)">
			<g id="head-4" transform="translate(16.5 12)">
				<circle class="st3" cx="10.1" cy="7.3" r="13.1"/>
				<circle class="st4" cx="10.1" cy="7.3" r="12.4"/>
			</g>
		</g>
		<g transform="matrix(1, 0, 0, 1, 1799.5, 995)">
			<path id="body-4" class="st5" d="M1.1,68c0,0,0-35.5,24.7-35.5c9.6,0,15.5,5.4,19.4,12.5c5.3,9.8,5.3,23,5.3,23"/>
		</g>
	</g>
</g>
</svg>
